<?xml version="1.0" encoding="UTF-8"?>
<svg width="24px" height="24px" viewBox="0 0 24 24" version="1.1" xmlns="http://www.w3.org/2000/svg" xmlns:xlink="http://www.w3.org/1999/xlink">
    <title>close</title>
    <g id="close" stroke="none" stroke-width="1" fill="none" fill-rule="evenodd">
        <g id="np_close_546124_000000" transform="translate(3.000000, 3.000000)" fill="#2F2F2F" fill-rule="nonzero">
            <path d="M9,0 C4.0398,0 0,4.0398 0,9 C0,13.9602 4.0204,18 9,18 C13.9602,18 18,13.9796 18,9 C18,4.0204 13.9602,0 9,0 Z M9,16.4796 C4.8796,16.4796 1.5204,13.1194 1.5204,9 C1.5204,4.8796 4.8798,1.5398 9,1.5398 C13.1202,1.5398 16.4796,4.8796 16.4796,9 C16.4796,13.1204 13.1202,16.4796 9,16.4796 Z M12.2398,5.76 C11.9398,5.46 11.46012,5.46 11.16012,5.76 L8.99992,7.9202 L6.83972,5.76 C6.53972,5.46 6.06004,5.46 5.76004,5.76 C5.46004,6.06 5.46004,6.53968 5.76004,6.83968 L7.92024,8.99988 L5.76004,11.16008 C5.46004,11.46008 5.46004,11.93976 5.76004,12.23976 C6.06004,12.53976 6.53972,12.53976 6.83972,12.23976 L8.99992,10.07956 L11.16012,12.23976 C11.46012,12.53976 11.9398,12.53976 12.2398,12.23976 C12.5398,11.93976 12.5398,11.46008 12.2398,11.16008 L10.0796,8.99988 L12.2398,6.83968 C12.5398,6.53968 12.5398,6.06 12.2398,5.76 Z" id="Shape"></path>
        </g>
    </g>
</svg>