<?xml version="1.0" encoding="UTF-8"?>
<svg width="176px" height="116px" viewBox="0 0 176 116" version="1.1" xmlns="http://www.w3.org/2000/svg" xmlns:xlink="http://www.w3.org/1999/xlink">
    <title>Flagge 3</title>
    <g id="Flagge-3" stroke="none" stroke-width="1" fill="none" fill-rule="evenodd">
        <rect id="Rectangle" fill="#005BB0" x="0" y="0" width="176" height="58"></rect>
        <rect id="Rectangle" fill="#FFD500" x="0" y="58" width="176" height="58"></rect>
        <path d="M55.0289398,27.4359424 C69.6024981,49.005275 88.1381988,53.0859179 93.5031336,53.2043252 C98.9816257,53.2043252 102.711757,45.0431326 110.991404,43.4127594 C118.540387,41.9213975 121.724209,48.7674642 122.227288,49.9837465 L122.267661,50.0834077 C122.289072,50.1375068 122.299552,50.1662977 122.299552,50.1660297 C106.441189,52.9618212 109.123656,66.488415 102.943535,79.194226 C96.6500895,91.9051669 78.2281792,89.4549671 71.000627,89.8056418 C63.6541546,90.2747938 53.9763792,101 53.9763792,101 C48.0331655,95.6404282 45,78.3841694 45,78.3841694 C61.6735497,80.7159387 71.3513251,71.7395595 71.3513251,71.7395595 C50.8298897,62.1804712 55.0289398,27.4359424 55.0289398,27.4359424 Z M121.716143,53.673244 C121.133201,57.2846883 121.133201,59.3842134 121.483876,63.2325655 C121.591677,64.117089 120.972008,64.8952994 120.112654,65.0754442 L119.967293,65.0998464 L119.735026,65.0998464 C118.801408,65.0998464 118.104606,64.5168807 117.986199,63.5832636 C117.635524,60.1994 117.517116,57.9860845 117.867791,55.3036171 C118.919886,54.7207214 120.08577,54.1377791 121.716143,53.673244 Z M78.4655533,22.4268356 C78.4650869,22.4268356 93.5031803,35.0148922 92.4557029,49.593114 C89.7788317,49.2424159 83.1290919,47.9627409 75.0863532,42.5978061 C76.3660282,38.1662785 78.347146,30.2373301 78.4655533,22.4268356 Z M118.450734,24.2887534 C118.687618,24.4068691 118.801478,24.639125 118.919886,24.9852529 C119.15213,25.3361841 124.981553,34.6634946 123.232726,44.9242123 C122.41754,43.8767815 121.370109,42.8247105 120.08577,42.0095007 C120.436468,34.8955056 117.171035,28.6015939 116.237418,27.0850111 C116.701907,26.5020688 117.517116,25.454638 118.450734,24.2887534 Z M117.867791,37.9338011 C111.574346,43.0618282 105.16198,35.4835779 105.16198,35.4835779 C112.972008,31.7536797 117.867791,37.9292471 117.867791,37.9338011 Z M131.513305,24.2887534 C133.375923,32.681957 126.14837,36.179611 126.14837,36.179611 C122.650717,28.8338381 131.513305,24.2887534 131.513305,24.2887534 Z M115.773862,31.5160724 C108.541996,35.0137263 103.878451,26.2695914 103.883001,26.2695914 C112.276208,24.4023105 115.773862,31.5160724 115.773862,31.5160724 Z M126.379915,14.729665 C130.109813,22.5396932 123.815902,27.4354761 123.815902,27.4354761 C118.801665,21.1420307 126.379915,14.729665 126.379915,14.729665 Z M115.422931,11 C121.94918,18.8110775 114.607721,24.4081866 114.607721,24.5265938 C108.427623,17.1801214 115.422931,11 115.422931,11 Z" id="taube" fill="#FFFFFF" fill-rule="nonzero"></path>
    </g>
</svg>