<?xml version="1.0" encoding="UTF-8"?>
<svg width="176px" height="116px" viewBox="0 0 176 116" version="1.1" xmlns="http://www.w3.org/2000/svg" xmlns:xlink="http://www.w3.org/1999/xlink">
    <title>Flagge 1</title>
    <g id="Flagge-1" stroke="none" stroke-width="1" fill="none" fill-rule="evenodd">
        <rect id="Rectangle" fill="#005BB0" x="0" y="0" width="176" height="58"></rect>
        <rect id="Rectangle" fill="#FFD500" x="0" y="58" width="176" height="58"></rect>
        <path d="M88,16 C76.8596037,16 66.180393,20.424347 58.2993216,28.2993216 C50.424347,36.1795801 46,46.8591972 46,58 C46,69.1408028 50.424347,79.819607 58.2993216,87.7006784 C66.1795801,95.575653 76.8591972,100 88,100 C99.1408028,100 109.819607,95.575653 117.700678,87.7006784 C125.575653,79.8204199 130,69.1408028 130,58 C130,46.8591972 125.575653,36.180393 117.700678,28.2993216 C109.82042,20.424347 99.1408028,16 88,16 Z M83.935497,91.6119496 C76.8808746,90.7651782 70.2814765,87.7115171 65.0626546,82.8902036 L83.935497,64.7747136 L83.935497,91.6119496 Z M92.064503,64.7740362 L110.937345,82.9003648 C105.719065,87.7163945 99.114248,90.7647717 92.064503,91.6115432 L92.064503,64.7740362 Z M83.935497,24.3877794 L83.935497,53.5532982 L59.7815104,76.7074171 C53.2983571,66.9218551 52.3457731,54.4745856 57.2676153,43.8106845 C62.1894575,33.1519318 72.2818894,25.8008716 83.9361744,24.3877794 L83.935497,24.3877794 Z M116.21849,76.7074171 L92.064503,53.5532982 L92.064503,24.3877794 C103.718246,25.8008716 113.810949,33.1519318 118.733062,43.8106845 C123.654904,54.474721 122.70232,66.9228035 116.219167,76.7074171 L116.21849,76.7074171 Z" id="Shape" fill="#FFFFFF" fill-rule="nonzero"></path>
    </g>
</svg>