<?xml version="1.0" encoding="UTF-8"?>
<svg width="176px" height="116px" viewBox="0 0 176 116" version="1.1" xmlns="http://www.w3.org/2000/svg" xmlns:xlink="http://www.w3.org/1999/xlink">
    <title>Flagge 4</title>
    <g id="Flagge-4" stroke="none" stroke-width="1" fill="none" fill-rule="evenodd">
        <rect id="Rectangle" fill="#005BB0" x="0" y="0" width="176" height="58"></rect>
        <rect id="Rectangle" fill="#FFD500" x="0" y="58" width="176" height="58"></rect>
        <path d="M104.946319,61.6142613 L111.804818,24.0547414 C112.069148,21.5770889 110.278762,19.3567563 107.801109,19.0923988 C105.323457,18.8280684 103.103124,20.6184545 102.838767,23.0996258 L96.9812175,46.0536181 C96.6217274,47.2342947 95.6666479,49.50398 94.0383679,49.6273168 L89.3897356,19.5077018 C89.3897356,17.019493 87.3702426,15 84.8820338,15 C82.3903063,15 80.3743321,17.019493 80.3743321,19.5077018 L84.0150675,51.2621831 L83.7154954,51.2621831 C83.7154954,48.7070278 81.0969123,46.7544813 78.6826875,46.7544813 C76.19096,46.7544813 73.5053402,48.597766 73.5053402,51.0894936 L73.5053402,57.2677906 C73.5053402,54.7548603 71.3730667,52.9327783 68.9094891,52.9292596 C66.4177616,52.9292596 64.1268736,54.9487525 64.1268736,58.7938462 L64,71.5560891 C64.0035242,83.2960894 72.6559495,94.996391 87.0992536,95 C99.8642032,94.9964749 107.346514,85.7240283 109.292654,75.4853622 C110.152601,70.9423827 113.194138,66.3609676 105.02107,61.4933606 C104.943534,61.4440187 105.031643,61.6625314 104.950582,61.6167154 L104.946319,61.6142613 Z" id="Path" fill="#FFFFFF" fill-rule="nonzero"></path>
    </g>
</svg>