<?xml version="1.0" encoding="UTF-8"?>
<svg width="176px" height="116px" viewBox="0 0 176 116" version="1.1" xmlns="http://www.w3.org/2000/svg" xmlns:xlink="http://www.w3.org/1999/xlink">
    <title>Flagge 2</title>
    <g id="Flagge-2" stroke="none" stroke-width="1" fill="none" fill-rule="evenodd">
        <rect id="Rectangle" fill="#005BB0" x="0" y="0" width="176" height="58"></rect>
        <rect id="Rectangle" fill="#FFD500" x="0" y="58" width="176" height="58"></rect>
        <g id="Stop" transform="translate(38.703027, 17.847656)" fill="#FFFFFF" fill-rule="nonzero">
            <path d="M14.7792969,24.5722656 C14.7792969,23.2395833 14.4386393,22.2325846 13.7573242,21.5512695 C13.0760091,20.8699544 11.8369141,20.1624349 10.0400391,19.4287109 C6.76074219,18.1858724 4.40234375,16.7296549 2.96484375,15.0600586 C1.52734375,13.3904622 0.80859375,11.4176432 0.80859375,9.14160156 C0.80859375,6.38639323 1.78564453,4.17399089 3.73974609,2.50439453 C5.69384766,0.834798177 8.17578125,0 11.1855469,0 C13.1920573,0 14.9814453,0.423014323 16.5537109,1.26904297 C18.1259766,2.11507161 19.3351237,3.30924479 20.1811523,4.8515625 C21.027181,6.39388021 21.4501953,8.14583333 21.4501953,10.1074219 L14.8691406,10.1074219 C14.8691406,8.58007812 14.543457,7.41585286 13.8920898,6.61474609 C13.2407227,5.81363932 12.3011068,5.41308594 11.0732422,5.41308594 C9.9202474,5.41308594 9.0218099,5.75374349 8.37792969,6.43505859 C7.73404948,7.1163737 7.41210937,8.03352865 7.41210937,9.18652344 C7.41210937,10.0849609 7.77148438,10.8972982 8.49023438,11.6235352 C9.20898438,12.3497721 10.4817708,13.1022135 12.3085938,13.8808594 C15.4980469,15.0338542 17.8152669,16.4488932 19.2602539,18.1259766 C20.7052409,19.8030599 21.4277344,21.936849 21.4277344,24.5273438 C21.4277344,27.3723958 20.5218099,29.5960286 18.7099609,31.1982422 C16.898112,32.8004557 14.4348958,33.6015625 11.3203125,33.6015625 C9.20898438,33.6015625 7.28483073,33.1673177 5.54785156,32.2988281 C3.8108724,31.4303385 2.45198568,30.1875 1.47119141,28.5703125 C0.490397135,26.953125 0,25.0439453 0,22.8427734 L6.62597656,22.8427734 C6.62597656,24.7294922 6.99283854,26.0996094 7.7265625,26.953125 C8.46028646,27.8066406 9.65820312,28.2333984 11.3203125,28.2333984 C13.6263021,28.2333984 14.7792969,27.0130208 14.7792969,24.5722656 Z" id="Path"></path>
            <polygon id="Path" points="46.6882813 5.95214844 38.6023438 5.95214844 38.6023438 33.1523438 31.9763672 33.1523438 31.9763672 5.95214844 24.0251953 5.95214844 24.0251953 0.44921875 46.6882813 0.44921875"></polygon>
            <path d="M72.5777344,19.7431641 C72.5777344,24.1305339 71.5407878,27.5371094 69.4668945,29.9628906 C67.3930013,32.3886719 64.5142578,33.6015625 60.8306641,33.6015625 C57.1620443,33.6015625 54.2795573,32.3999023 52.1832031,29.996582 C50.086849,27.5932617 49.0236979,24.2278646 48.99375,19.9003906 L48.99375,14.3076172 C48.99375,9.81542969 50.0344401,6.30777995 52.1158203,3.78466797 C54.1972005,1.26155599 57.0871745,0 60.7857422,0 C64.4244141,0 67.2919271,1.23909505 69.3882813,3.71728516 C71.4846354,6.19547526 72.5477865,9.67317708 72.5777344,14.1503906 L72.5777344,19.7431641 Z M65.9517578,14.2626953 C65.9517578,11.3128255 65.532487,9.11914062 64.6939453,7.68164062 C63.8554036,6.24414062 62.5526693,5.52539062 60.7857422,5.52539062 C59.0337891,5.52539062 57.7385417,6.2179362 56.9,7.60302734 C56.0614583,8.98811849 55.6272135,11.0957031 55.5972656,13.9257812 L55.5972656,19.7431641 C55.5972656,22.6031901 56.0240234,24.7107747 56.8775391,26.065918 C57.7310547,27.4210612 59.048763,28.0986328 60.8306641,28.0986328 C62.5526693,28.0986328 63.8329427,27.4360352 64.6714844,26.1108398 C65.510026,24.7856445 65.9367839,22.7304688 65.9517578,19.9453125 L65.9517578,14.2626953 Z" id="Shape"></path>
            <path d="M83.6205078,21.6523438 L83.6205078,33.1523438 L77.0169922,33.1523438 L77.0169922,0.44921875 L88.1576172,0.44921875 C91.3919922,0.44921875 93.9712565,1.45247396 95.8954102,3.45898438 C97.8195638,5.46549479 98.7816406,8.07096354 98.7816406,11.2753906 C98.7816406,14.4798177 97.8307943,17.0104167 95.9291016,18.8671875 C94.0274089,20.7239583 91.3919922,21.6523438 88.0228516,21.6523438 L83.6205078,21.6523438 Z M83.6205078,16.1494141 L88.1576172,16.1494141 C89.4154297,16.1494141 90.388737,15.7376302 91.0775391,14.9140625 C91.7663411,14.0904948 92.1107422,12.8925781 92.1107422,11.3203125 C92.1107422,9.68815104 91.7588542,8.38916016 91.0550781,7.42333984 C90.3513021,6.45751953 89.4079427,5.9671224 88.225,5.95214844 L83.6205078,5.95214844 L83.6205078,16.1494141 Z" id="Shape"></path>
        </g>
        <g id="War" transform="translate(46.223438, 65.296875)" fill="#FFFFFF" fill-rule="nonzero">
            <polygon id="Path" points="22.8876953 20.5517578 25.9873047 0 32.5234375 0 26.7060547 32.703125 20.0800781 32.703125 16.2617188 13.4316406 12.4882812 32.703125 5.83984375 32.703125 0 0 6.58105469 0 9.65820312 20.5292969 13.4990234 0 19.046875 0"></polygon>
            <path d="M50.4392578,26.0097656 L41.4324219,26.0097656 L39.6804688,32.703125 L32.6951172,32.703125 L42.9148438,0 L48.9568359,0 L59.2439453,32.703125 L52.1912109,32.703125 L50.4392578,26.0097656 Z M42.8699219,20.5068359 L48.9792969,20.5068359 L45.9246094,8.84960938 L42.8699219,20.5068359 Z" id="Shape"></path>
            <path d="M71.9039062,20.7539062 L68.6246094,20.7539062 L68.6246094,32.703125 L62.0210937,32.703125 L62.0210937,0 L72.5552734,0 C75.8645182,0 78.4213216,0.857259115 80.2256836,2.57177734 C82.0300456,4.28629557 82.9322266,6.72330729 82.9322266,9.8828125 C82.9322266,14.2252604 81.352474,17.264974 78.1929687,19.0019531 L83.9205078,32.3886719 L83.9205078,32.703125 L76.8228516,32.703125 L71.9039062,20.7539062 Z M68.6246094,15.2509766 L72.3755859,15.2509766 C73.6932943,15.2509766 74.6815755,14.8129883 75.3404297,13.9370117 C75.9992839,13.0610352 76.3287109,11.8893229 76.3287109,10.421875 C76.3287109,7.14257812 75.0484375,5.50292969 72.4878906,5.50292969 L68.6246094,5.50292969 L68.6246094,15.2509766 Z" id="Shape"></path>
        </g>
    </g>
</svg>